<svg width="144" height="137" viewBox="0 0 144 137" fill="none" xmlns="http://www.w3.org/2000/svg">
<path d="M20.4725 28.4858C25.5707 28.4858 29.7396 29.6807 32.9791 32.0705C36.2186 34.4603 37.8383 37.8325 37.8383 42.1872C37.8383 44.7894 37.201 47.3385 35.9265 49.8346C34.6519 52.2774 33.0056 54.6672 30.9876 57.0039C28.9695 59.2875 26.1283 62.2614 22.464 65.9258C21.6143 66.8286 20.1273 68.3687 18.0031 70.546C15.8788 72.7234 13.9404 74.8211 12.1879 76.8391H31.6249C33.1118 76.8391 34.3067 76.4409 35.2095 75.6443C36.1654 74.7946 36.7762 73.3607 37.0417 71.3426H38.8739C38.7146 72.511 38.6349 74.0245 38.6349 75.8832C38.6349 79.0696 38.8208 82.4419 39.1925 86H17.2861L6.53209 85.9203C4.67336 85.9203 3.2926 85.9469 2.38979 86V84.4068C9.02809 78.5651 14.5777 72.1127 19.0386 65.0495C23.5527 57.9333 25.8097 50.6577 25.8097 43.2228C25.8097 38.6026 24.96 35.31 23.2606 33.345C21.5612 31.327 19.4104 30.318 16.8082 30.318C15.4274 30.318 14.0997 30.61 12.8252 31.1942C11.6037 31.7253 10.7275 32.4688 10.1964 33.4247C11.7896 33.7964 13.0376 34.5399 13.9404 35.6551C14.8432 36.7704 15.2946 38.0449 15.2946 39.4788C15.2946 41.2313 14.6839 42.6386 13.4625 43.7008C12.2941 44.7629 10.8603 45.294 9.16085 45.294C7.35523 45.294 5.92136 44.7363 4.85923 43.6211C3.85021 42.4528 3.3457 41.072 3.3457 39.4788C3.3457 37.0359 4.72647 34.7258 7.488 32.5484C9.02809 31.2208 10.9134 30.2117 13.1438 29.5214C15.3743 28.831 17.8172 28.4858 20.4725 28.4858ZM63.414 28.4858C68.5122 28.4858 72.6811 29.6807 75.9206 32.0705C79.16 34.4603 80.7798 37.8325 80.7798 42.1872C80.7798 44.7894 80.1425 47.3385 78.868 49.8346C77.5934 52.2774 75.9471 54.6672 73.9291 57.0039C71.911 59.2875 69.0698 62.2614 65.4055 65.9258C64.5558 66.8286 63.0688 68.3687 60.9446 70.546C58.8203 72.7234 56.8819 74.8211 55.1294 76.8391H74.5663C76.0533 76.8391 77.2482 76.4409 78.151 75.6443C79.1069 74.7946 79.7177 73.3607 79.9832 71.3426H81.8154C81.656 72.511 81.5764 74.0245 81.5764 75.8832C81.5764 79.0696 81.7623 82.4419 82.134 86H60.2276L49.4736 85.9203C47.6149 85.9203 46.2341 85.9469 45.3313 86V84.4068C51.9696 78.5651 57.5192 72.1127 61.9801 65.0495C66.4942 57.9333 68.7512 50.6577 68.7512 43.2228C68.7512 38.6026 67.9015 35.31 66.2021 33.345C64.5027 31.327 62.3519 30.318 59.7497 30.318C58.3689 30.318 57.0412 30.61 55.7667 31.1942C54.5452 31.7253 53.669 32.4688 53.1379 33.4247C54.7311 33.7964 55.9791 34.5399 56.8819 35.6551C57.7847 36.7704 58.2361 38.0449 58.2361 39.4788C58.2361 41.2313 57.6254 42.6386 56.404 43.7008C55.2356 44.7629 53.8017 45.294 52.1023 45.294C50.2967 45.294 48.8629 44.7363 47.8007 43.6211C46.7917 42.4528 46.2872 41.072 46.2872 39.4788C46.2872 37.0359 47.668 34.7258 50.4295 32.5484C51.9696 31.2208 53.8549 30.2117 56.0853 29.5214C58.3158 28.831 60.7587 28.4858 63.414 28.4858ZM114.64 52.6226C118.092 55.278 120.774 57.4553 122.686 59.1547C124.598 60.801 126.244 62.7394 127.625 64.9699C129.005 67.2003 129.696 69.5636 129.696 72.0596C129.696 74.9804 128.793 77.5826 126.987 79.8662C125.182 82.1498 122.686 83.9289 119.499 85.2034C116.366 86.478 112.834 87.1152 108.905 87.1152C105.346 87.1152 102.08 86.6107 99.1065 85.6017C96.1325 84.5396 93.7427 82.9729 91.9371 80.9018C90.1315 78.8306 89.2287 76.3612 89.2287 73.4934C89.2287 70.0415 90.4767 67.041 92.9727 64.4919C95.5218 61.9428 98.9472 59.792 103.249 58.0395C99.6375 55.2248 96.8494 52.5695 94.8845 50.0735C92.9196 47.5244 91.9371 44.6567 91.9371 41.4703C91.9371 38.7088 92.7337 36.3455 94.3269 34.3806C95.9732 32.4157 98.1506 30.9552 100.859 29.9993C103.621 28.9903 106.648 28.4858 109.94 28.4858C113.18 28.4858 116.047 28.9637 118.543 29.9197C121.093 30.8225 123.084 32.1236 124.518 33.823C125.952 35.4693 126.669 37.4077 126.669 39.6381C126.669 42.2403 125.66 44.577 123.642 46.6482C121.624 48.7193 118.623 50.7108 114.64 52.6226ZM109.303 29.9197C107.179 29.9197 105.506 30.5304 104.284 31.7518C103.063 32.9202 102.452 34.5134 102.452 36.5314C102.452 39.1867 103.382 41.6827 105.24 44.0194C107.152 46.303 109.861 48.8255 113.366 51.5871C114.746 50.1532 115.755 48.4272 116.393 46.4092C117.083 44.338 117.428 42.2934 117.428 40.2754C117.428 37.0359 116.711 34.5134 115.277 32.7077C113.843 30.849 111.852 29.9197 109.303 29.9197ZM109.303 85.6814C112.171 85.6814 114.428 84.8848 116.074 83.2916C117.773 81.6984 118.623 79.6272 118.623 77.0781C118.623 74.6883 117.986 72.4844 116.711 70.4664C115.437 68.4483 113.923 66.6958 112.171 65.2088C110.471 63.6688 107.949 61.6242 104.603 59.0751C102.691 60.6683 101.284 62.6066 100.381 64.8902C99.5313 67.1207 99.1065 69.5105 99.1065 72.0596C99.1065 76.0957 99.9031 79.3883 101.496 81.9374C103.143 84.4334 105.745 85.6814 109.303 85.6814Z" fill="#258AFF"/>
<path d="M24.2891 103.014C25.3148 103.014 26.2007 102.979 26.9467 102.909L26.7718 103.608C25.5363 103.865 24.359 104.879 23.24 106.651L9.46239 127.841H8.93786L6.17535 105.846C6.0821 105.077 5.84897 104.517 5.47597 104.168C5.12629 103.818 4.75329 103.632 4.35698 103.608L4.53182 102.909C5.44101 102.979 6.69987 103.014 8.30843 103.014C10.1035 103.014 11.5022 102.979 12.5047 102.909L12.3298 103.608C11.5838 103.655 11.0127 103.725 10.6164 103.818C10.2434 103.911 9.95195 104.098 9.74214 104.378C9.55564 104.657 9.46239 105.089 9.46239 105.671C9.46239 105.835 9.4857 106.126 9.53233 106.546L11.5255 123.435L21.2118 108.574C22.2143 107.012 22.7155 105.858 22.7155 105.112C22.7155 104.599 22.494 104.226 22.0511 103.993C21.6314 103.76 20.9904 103.632 20.1278 103.608L20.3026 102.909C21.5848 102.979 22.9136 103.014 24.2891 103.014ZM35.8997 111.511C35.8997 113.399 34.839 115.055 32.7176 116.477C30.5961 117.899 28.1717 119.053 25.4441 119.939C25.1877 121.104 25.0595 122.235 25.0595 123.331C25.0595 125.569 25.8637 126.688 27.4723 126.688C29.4771 126.688 31.2722 125.522 32.8574 123.191L33.4169 123.47C32.6709 124.753 31.6569 125.86 30.3747 126.792C29.1158 127.702 27.787 128.156 26.3883 128.156C24.9429 128.156 23.8122 127.737 22.9963 126.897C22.1804 126.058 21.7724 124.834 21.7724 123.226C21.7724 121.454 22.2853 119.461 23.311 117.246C24.3601 115.008 25.7705 113.108 27.5422 111.546C29.314 109.984 31.2372 109.203 33.312 109.203C34.058 109.203 34.6758 109.401 35.1654 109.798C35.6549 110.194 35.8997 110.765 35.8997 111.511ZM32.5427 109.868C31.7967 109.868 30.9575 110.311 30.025 111.196C29.1158 112.059 28.2533 113.213 27.4373 114.658C26.6447 116.104 26.0386 117.642 25.619 119.274C27.8336 118.505 29.4189 117.759 30.3747 117.036C31.2372 116.36 31.9016 115.544 32.3679 114.588C32.8574 113.609 33.1022 112.56 33.1022 111.441C33.1022 110.812 33.0556 110.392 32.9623 110.182C32.8691 109.973 32.7292 109.868 32.5427 109.868ZM54.8775 122.002L54.0033 124.554C53.1641 126.956 51.7537 128.156 49.7721 128.156C48.7231 128.156 47.9887 127.818 47.5691 127.142C47.3826 126.862 47.2893 126.478 47.2893 125.988C47.2893 125.359 47.4875 124.45 47.8838 123.261L51.2058 113.26C51.4389 112.49 51.5555 111.919 51.5555 111.546C51.5555 110.73 51.1825 110.322 50.4365 110.322C49.5506 110.322 48.5366 110.975 47.3943 112.28C46.2753 113.563 45.1679 115.334 44.0722 117.596C42.9766 119.857 42.0324 122.363 41.2398 125.114L40.6104 127.667H37.5681L41.7643 112.665C41.9275 112.059 42.0091 111.628 42.0091 111.371C42.0091 110.789 41.7527 110.497 41.2398 110.497C40.7269 110.497 40.2723 110.754 39.876 111.266C39.4797 111.779 39.0368 112.712 38.5472 114.064L38.0926 115.358H37.4282L38.3024 112.805C39.1417 110.404 40.5288 109.203 42.4637 109.203C43.2097 109.203 43.7342 109.39 44.0373 109.763C44.3636 110.112 44.5268 110.614 44.5268 111.266C44.5268 111.896 44.3636 112.84 44.0373 114.099L42.8134 118.89C44.3054 115.369 45.7274 112.875 47.0795 111.406C48.455 109.938 49.9586 109.203 51.5905 109.203C53.4788 109.203 54.4229 110.077 54.4229 111.826C54.4229 112.595 54.2481 113.481 53.8984 114.484L50.5065 124.694C50.32 125.254 50.2267 125.697 50.2267 126.023C50.2267 126.583 50.5065 126.862 51.066 126.862C51.5322 126.862 51.9751 126.606 52.3948 126.093C52.8377 125.557 53.2923 124.624 53.7585 123.296L54.2131 122.002H54.8775ZM60.8599 124.694C60.7899 124.974 60.755 125.231 60.755 125.464C60.755 125.93 60.8948 126.28 61.1746 126.513C61.4543 126.746 61.8157 126.862 62.2586 126.862C62.8414 126.862 63.3776 126.618 63.8672 126.128C64.38 125.615 64.8813 124.694 65.3708 123.366L65.8604 122.002H66.5248L65.7904 124.205C65.3009 125.65 64.6598 126.676 63.8672 127.282C63.0979 127.865 62.1421 128.156 60.9998 128.156C59.9507 128.156 59.1697 127.9 58.6569 127.387C58.144 126.874 57.8875 126.163 57.8875 125.254C57.8875 124.648 57.9925 123.983 58.2023 123.261L61.9089 110.392H58.7618L58.9366 109.693H62.0838L63.6224 104.378C64.8813 104.331 65.9303 104.168 66.7696 103.888L65.126 109.693H69.7419L69.637 110.392H64.9162L60.8599 124.694ZM85.8252 122.002H86.4896L85.6154 124.554C84.7762 126.956 83.3658 128.156 81.3842 128.156C81.0112 128.156 80.6615 128.075 80.3352 127.911C80.0088 127.748 79.764 127.515 79.6008 127.212C79.461 126.886 79.391 126.524 79.391 126.128C79.391 125.522 79.5542 124.566 79.8806 123.261L80.9646 118.89C79.6125 122.223 78.2953 124.601 77.0132 126.023C75.731 127.445 74.3322 128.156 72.8169 128.156C70.8587 128.156 69.8796 127.259 69.8796 125.464C69.8796 124.718 70.0428 123.855 70.3691 122.876L73.7611 112.665C73.9476 112.106 74.0408 111.674 74.0408 111.371C74.0408 110.789 73.7611 110.497 73.2016 110.497C72.7353 110.497 72.2808 110.765 71.8378 111.301C71.4182 111.814 70.9753 112.735 70.509 114.064L70.0544 115.358H69.39L70.2642 112.805C71.1035 110.404 72.5139 109.203 74.4954 109.203C76.1273 109.203 76.9432 109.926 76.9432 111.371C76.9432 112.071 76.7567 112.98 76.3837 114.099L73.0617 124.1C72.8286 124.799 72.712 125.382 72.712 125.848C72.712 126.641 73.085 127.037 73.831 127.037C74.7402 127.037 75.7426 126.373 76.8383 125.044C77.934 123.692 79.018 121.827 80.0904 119.449C81.1628 117.071 82.0953 114.39 82.8879 111.406L83.3075 109.693C84.6363 109.646 85.697 109.483 86.4896 109.203L82.1535 124.694C81.9904 125.3 81.9088 125.755 81.9088 126.058C81.9088 126.594 82.1535 126.862 82.6431 126.862C83.156 126.862 83.6222 126.594 84.0418 126.058C84.4848 125.499 84.9277 124.578 85.3706 123.296L85.8252 122.002ZM102.029 109.203C102.658 109.203 103.16 109.39 103.533 109.763C103.906 110.136 104.092 110.614 104.092 111.196C104.092 111.896 103.847 112.49 103.358 112.98C102.868 113.469 102.297 113.714 101.644 113.714C101.225 113.714 100.887 113.609 100.63 113.399C100.374 113.166 100.246 112.852 100.246 112.455C100.246 111.919 100.386 111.465 100.665 111.092C100.945 110.719 101.33 110.427 101.819 110.217C101.726 110.124 101.598 110.077 101.435 110.077C100.176 110.077 98.8003 111.441 97.3083 114.169C95.8396 116.873 94.4525 120.451 93.147 124.904L92.4477 127.667H89.4054L93.6016 112.665C93.7648 112.152 93.8464 111.698 93.8464 111.301C93.8464 110.765 93.6016 110.497 93.1121 110.497C92.5992 110.497 92.1213 110.777 91.6784 111.336C91.2587 111.873 90.8275 112.782 90.3845 114.064L89.9299 115.358H89.2655L90.1398 112.805C90.979 110.404 92.3894 109.203 94.3709 109.203C95.6998 109.203 96.3642 109.879 96.3642 111.231C96.3642 111.884 96.201 112.84 95.8746 114.099L94.7556 118.505C96.0145 115.125 97.1917 112.735 98.2874 111.336C99.4064 109.914 100.654 109.203 102.029 109.203ZM116.969 111.511C116.969 113.399 115.909 115.055 113.787 116.477C111.666 117.899 109.241 119.053 106.514 119.939C106.257 121.104 106.129 122.235 106.129 123.331C106.129 125.569 106.933 126.688 108.542 126.688C110.547 126.688 112.342 125.522 113.927 123.191L114.487 123.47C113.741 124.753 112.727 125.86 111.444 126.792C110.185 127.702 108.857 128.156 107.458 128.156C106.013 128.156 104.882 127.737 104.066 126.897C103.25 126.058 102.842 124.834 102.842 123.226C102.842 121.454 103.355 119.461 104.381 117.246C105.43 115.008 106.84 113.108 108.612 111.546C110.384 109.984 112.307 109.203 114.382 109.203C115.128 109.203 115.745 109.401 116.235 109.798C116.725 110.194 116.969 110.765 116.969 111.511ZM113.612 109.868C112.866 109.868 112.027 110.311 111.095 111.196C110.185 112.059 109.323 113.213 108.507 114.658C107.714 116.104 107.108 117.642 106.689 119.274C108.903 118.505 110.489 117.759 111.444 117.036C112.307 116.36 112.971 115.544 113.438 114.588C113.927 113.609 114.172 112.56 114.172 111.441C114.172 110.812 114.125 110.392 114.032 110.182C113.939 109.973 113.799 109.868 113.612 109.868ZM119.477 127.142C119.71 127.259 119.932 127.34 120.141 127.387C120.375 127.434 120.689 127.457 121.086 127.457C122.135 127.457 122.986 127.142 123.638 126.513C124.291 125.883 124.617 124.997 124.617 123.855C124.617 123.109 124.478 122.386 124.198 121.687C123.918 120.964 123.452 120.148 122.799 119.239C122.006 118.167 121.424 117.293 121.051 116.617C120.701 115.917 120.526 115.101 120.526 114.169C120.526 113.213 120.771 112.362 121.26 111.616C121.75 110.847 122.403 110.252 123.219 109.833C124.058 109.413 124.967 109.203 125.946 109.203C127.158 109.203 128.173 109.436 128.988 109.903C129.804 110.346 130.212 111.127 130.212 112.246C130.212 112.665 130.072 113.073 129.793 113.469C129.536 113.866 129.14 114.064 128.604 114.064C128.207 114.064 127.869 113.924 127.59 113.644C127.333 113.365 127.205 113.015 127.205 112.595C127.205 111.849 127.531 111.068 128.184 110.252C127.741 109.973 127.158 109.833 126.436 109.833C125.55 109.833 124.816 110.136 124.233 110.742C123.673 111.325 123.393 112.129 123.393 113.155C123.393 113.761 123.498 114.285 123.708 114.728C123.918 115.148 124.303 115.777 124.862 116.617L125.492 117.526C126.191 118.598 126.704 119.519 127.03 120.288C127.38 121.058 127.555 121.85 127.555 122.666C127.555 123.715 127.275 124.659 126.715 125.499C126.179 126.338 125.445 126.991 124.512 127.457C123.603 127.923 122.613 128.156 121.54 128.156C120.211 128.156 119.092 127.876 118.183 127.317C117.274 126.734 116.819 125.86 116.819 124.694C116.819 124.298 116.936 123.937 117.169 123.61C117.379 123.284 117.717 123.121 118.183 123.121C118.696 123.121 119.081 123.331 119.337 123.75C119.594 124.17 119.722 124.694 119.722 125.324C119.722 125.72 119.64 126.326 119.477 127.142Z" fill="#258AFF"/>
</svg>
