<svg width="78" height="85" viewBox="0 0 78 85" fill="none" xmlns="http://www.w3.org/2000/svg">
<g filter="url(#filter0_d)">
<path d="M37.6846 46.1619V52.3812L38.4366 51.8924L39.1886 52.3812V46.1619L38.4366 46.6507L37.6846 46.1619Z" fill="#258AFF"/>
<path d="M30.2929 59.7925L30.2402 59.7588L30.2929 59.796V67.3694L37.6854 72.1898V64.6169L30.2929 59.7813V59.7925Z" fill="#258AFF"/>
<path d="M38.4339 53.6892L31.064 58.4946L38.4339 63.3152L45.879 58.5323L38.4339 53.6892Z" fill="#258AFF"/>
<path d="M39.1875 72.1901L46.595 67.3697V59.8718L39.1875 64.6247V72.1901Z" fill="#258AFF"/>
<path d="M13.3925 24.4054L6 19.5698V27.1503L13.3925 31.9784V24.4054Z" fill="#258AFF"/>
<path d="M21.5506 18.2908L14.1431 13.4778L6.76562 18.2833L14.1431 23.1038L21.5506 18.2908Z" fill="#258AFF"/>
<path d="M14.8979 31.9781L22.3055 27.15V19.592L14.8979 24.4051V31.9781Z" fill="#258AFF"/>
<path d="M54.7471 52.9459L62.1402 57.7723V50.2028L54.7471 45.3857V52.9459Z" fill="#258AFF"/>
<path d="M63.6431 57.7718L71.05 52.9453V45.418L63.6431 50.2056V57.7718Z" fill="#258AFF"/>
<path d="M62.893 39.2734L55.5049 44.0829L62.894 48.8971L70.3206 44.0997L62.893 39.2734Z" fill="#258AFF"/>
<path d="M38.4344 25.8647L31.0137 30.6954L38.4364 35.4876L45.9243 30.7314L38.4344 25.8647Z" fill="#258AFF"/>
<path d="M39.1875 44.3632L46.595 39.5364V32.0889L39.1875 36.8043V44.3632Z" fill="#258AFF"/>
<path d="M37.682 36.7956L30.2896 32.0186V39.5366L37.682 44.3625V36.7956Z" fill="#258AFF"/>
<path d="M39.1909 18.6879L46.5968 13.8689V6.55029L39.1909 11.1461V18.6879Z" fill="#258AFF"/>
<path d="M46.0276 5.13035L38.4351 0.189941L31.0576 4.99927L38.4371 9.81868L46.0276 5.13035Z" fill="#258AFF"/>
<path d="M37.6837 11.1227L30.2896 6.29468V13.8694L37.6837 18.6896V11.1227Z" fill="#258AFF"/>
<path d="M14.1444 39.2734L6.73926 44.094L14.1477 48.8971L21.5556 44.0891L14.1444 39.2734Z" fill="#258AFF"/>
<path d="M6 52.9453L13.3954 57.7732V50.2045L6 45.4075V52.9453Z" fill="#258AFF"/>
<path d="M14.9004 57.7699L22.305 52.945V45.3965L14.9004 50.2033V57.7699Z" fill="#258AFF"/>
<path d="M13.3916 33.4819V37.964L14.1436 37.4752L14.8957 37.964V33.4819L14.1436 33.9707L13.3916 33.4819Z" fill="#258AFF"/>
<path d="M62.1655 37.964L62.9176 37.4752L63.6696 37.964V33.4819L62.9176 33.9707L62.1655 33.4819V37.964Z" fill="#258AFF"/>
<path d="M53.2569 16.9901L48.0979 13.9294V14.6815L47.3008 15.2004L53.2569 18.7349V16.9901Z" fill="#258AFF"/>
<path d="M23.1472 17.5326L23.8089 17.9612C23.8089 18.0369 23.8089 18.9695 23.8089 18.8937L29.6297 15.2313L28.7874 14.6824V13.9905C28.7117 14.0381 22.7694 17.7698 23.1472 17.5326Z" fill="#258AFF"/>
<path d="M54.6066 54.7693C54.5931 54.7779 54.5899 54.78 54.6066 54.7693V54.7693Z" fill="#258AFF"/>
<path d="M54.7002 54.7042L53.309 53.8018L47.2476 57.6296L47.2776 57.6447L48.0974 58.1786V58.8705V58.893C53.1106 55.7126 54.3864 54.9033 54.6438 54.7399C54.6342 54.7461 54.6248 54.752 54.6167 54.7571C54.6333 54.7467 54.6595 54.73 54.7002 54.7042C54.6995 54.7046 54.698 54.7056 54.6969 54.7062C54.6977 54.7057 54.6996 54.7046 54.7002 54.7042Z" fill="#258AFF"/>
<path d="M54.7007 54.7059C54.7041 54.7038 54.7047 54.7033 54.7007 54.7059V54.7059Z" fill="#258AFF"/>
<path d="M54.626 54.7571C54.6139 54.7647 54.6056 54.77 54.6006 54.7731C54.6061 54.7696 54.6144 54.7644 54.626 54.7571Z" fill="#258AFF"/>
<path d="M23.8087 53.7567L22.8311 54.396L28.4111 58.4268L28.7872 58.7051V58.1862L29.6971 57.5921L29.7573 57.547L23.8087 53.2378V53.7567Z" fill="#258AFF"/>
<path d="M24.1339 12.1547L23.3613 10.8643L22.0709 11.6369L22.8435 12.9273L24.1339 12.1547Z" fill="#258AFF"/>
<path d="M21.5519 13.7001L20.7793 12.4097L19.4889 13.1823L20.2615 14.4727L21.5519 13.7001Z" fill="#258AFF"/>
<path d="M26.715 10.61L25.9424 9.31958L24.6517 10.0923L25.4243 11.3828L26.715 10.61Z" fill="#258AFF"/>
<path d="M54.3866 11.6366L53.0962 10.864L52.3236 12.1544L53.614 12.927L54.3866 11.6366Z" fill="#258AFF"/>
<path d="M56.9696 13.182L55.6792 12.4094L54.9066 13.6998L56.197 14.4725L56.9696 13.182Z" fill="#258AFF"/>
<path d="M51.8044 10.09L50.5137 9.31738L49.7412 10.6078L51.0319 11.3804L51.8044 10.09Z" fill="#258AFF"/>
<path d="M53.8988 28.3841L53.2596 27.963V27.0229C53.1239 27.0909 47.3764 29.9645 47.4539 29.9258L48.1007 30.3469C48.1007 30.4227 48.1007 31.3627 48.1007 31.287L53.8988 28.3841Z" fill="#258AFF"/>
<path d="M23.808 27.9628L23.1387 28.3989L28.7864 31.2792C28.7864 31.2035 28.7864 30.2785 28.7864 30.3542L29.4407 29.9256C29.3651 29.887 23.4293 26.8597 23.808 27.0528V27.9628V27.9628Z" fill="#258AFF"/>
<path d="M62.1498 24.4054L54.7573 19.5698V27.1503L62.1498 31.9784V24.4054Z" fill="#258AFF"/>
<path d="M62.9033 23.1038L70.3109 18.2908L62.9033 13.4778L55.5259 18.2833L62.9033 23.1038Z" fill="#258AFF"/>
<path d="M63.6538 24.4051V31.9781L71.0613 27.15V19.592L63.6538 24.4051Z" fill="#258AFF"/>
</g>
<defs>
<filter id="filter0_d" x="0.0233917" y="0.189941" width="77.0146" height="83.9534" filterUnits="userSpaceOnUse" color-interpolation-filters="sRGB">
<feFlood flood-opacity="0" result="BackgroundImageFix"/>
<feColorMatrix in="SourceAlpha" type="matrix" values="0 0 0 0 0 0 0 0 0 0 0 0 0 0 0 0 0 0 127 0"/>
<feOffset dy="5.97661"/>
<feGaussianBlur stdDeviation="2.9883"/>
<feColorMatrix type="matrix" values="0 0 0 0 0.958333 0 0 0 0 0.785833 0 0 0 0 0.527083 0 0 0 1 0"/>
<feBlend mode="normal" in2="BackgroundImageFix" result="effect1_dropShadow"/>
<feBlend mode="normal" in="SourceGraphic" in2="effect1_dropShadow" result="shape"/>
</filter>
</defs>
</svg>
