<svg width="205" height="84" viewBox="0 0 205 84" fill="none" xmlns="http://www.w3.org/2000/svg">
<g filter="url(#filter0_d)">
<path d="M37.6846 49.9719V56.1912L38.4366 55.7024L39.1886 56.1912V49.9719L38.4366 50.4607L37.6846 49.9719Z" fill="#258AFF"/>
<path d="M30.2929 63.6025L30.2402 63.5688L30.2929 63.6061V71.1794L37.6854 75.9999V68.4269L30.2929 63.5913V63.6025Z" fill="#258AFF"/>
<path d="M38.4339 57.4993L31.064 62.3047L38.4339 67.1252L45.879 62.3424L38.4339 57.4993Z" fill="#258AFF"/>
<path d="M39.1875 76.0002L46.595 71.1797V63.6819L39.1875 68.4347V76.0002Z" fill="#258AFF"/>
<path d="M13.3925 28.2155L6 23.3799V30.9603L13.3925 35.7884V28.2155Z" fill="#258AFF"/>
<path d="M21.5506 22.1009L14.1431 17.2878L6.76562 22.0933L14.1431 26.9139L21.5506 22.1009Z" fill="#258AFF"/>
<path d="M14.8979 35.7882L22.3055 30.96V23.4021L14.8979 28.2152V35.7882Z" fill="#258AFF"/>
<path d="M54.7471 56.756L62.1402 61.5823V54.0129L54.7471 49.1958V56.756Z" fill="#258AFF"/>
<path d="M63.6431 61.5818L71.05 56.7554V49.228L63.6431 54.0157V61.5818Z" fill="#258AFF"/>
<path d="M62.893 43.0835L55.5049 47.893L62.894 52.7072L70.3206 47.9098L62.893 43.0835Z" fill="#258AFF"/>
<path d="M38.4344 29.6748L31.0137 34.5054L38.4364 39.2977L45.9243 34.5414L38.4344 29.6748Z" fill="#258AFF"/>
<path d="M39.1875 48.1732L46.595 43.3465V35.8989L39.1875 40.6143V48.1732Z" fill="#258AFF"/>
<path d="M37.682 40.6057L30.2896 35.8286V43.3467L37.682 48.1726V40.6057Z" fill="#258AFF"/>
<path d="M39.1909 22.498L46.5968 17.679V10.3604L39.1909 14.9562V22.498Z" fill="#258AFF"/>
<path d="M46.0276 8.94041L38.4351 4L31.0576 8.80933L38.4371 13.6287L46.0276 8.94041Z" fill="#258AFF"/>
<path d="M37.6837 14.9327L30.2896 10.1047V17.6794L37.6837 22.4997V14.9327Z" fill="#258AFF"/>
<path d="M14.1444 43.0835L6.73926 47.904L14.1477 52.7072L21.5556 47.8991L14.1444 43.0835Z" fill="#258AFF"/>
<path d="M6 56.7554L13.3954 61.5832V54.0145L6 49.2175V56.7554Z" fill="#258AFF"/>
<path d="M14.9004 61.58L22.305 56.7551V49.2065L14.9004 54.0133V61.58Z" fill="#258AFF"/>
<path d="M13.3916 37.292V41.774L14.1436 41.2853L14.8957 41.774V37.292L14.1436 37.7807L13.3916 37.292Z" fill="#258AFF"/>
<path d="M62.1655 41.774L62.9176 41.2853L63.6696 41.774V37.292L62.9176 37.7807L62.1655 37.292V41.774Z" fill="#258AFF"/>
<path d="M53.2569 20.8002L48.0979 17.7395V18.4915L47.3008 19.0104L53.2569 22.5449V20.8002Z" fill="#258AFF"/>
<path d="M23.1472 21.3426L23.8089 21.7713C23.8089 21.847 23.8089 22.7795 23.8089 22.7038L29.6297 19.0414L28.7874 18.4924V17.8005C28.7117 17.8481 22.7694 21.5799 23.1472 21.3426Z" fill="#258AFF"/>
<path d="M54.6066 58.5793C54.5931 58.588 54.5899 58.59 54.6066 58.5793V58.5793Z" fill="#258AFF"/>
<path d="M54.7002 58.5143L53.309 57.6118L47.2476 61.4397L47.2776 61.4547L48.0974 61.9887V62.6805V62.7031C53.1106 59.5227 54.3864 58.7133 54.6438 58.55C54.6342 58.5561 54.6248 58.5621 54.6167 58.5672C54.6333 58.5567 54.6595 58.5401 54.7002 58.5143C54.6995 58.5146 54.698 58.5156 54.6969 58.5163C54.6977 58.5158 54.6996 58.5146 54.7002 58.5143Z" fill="#258AFF"/>
<path d="M54.7007 58.5159C54.7041 58.5138 54.7047 58.5133 54.7007 58.5159V58.5159Z" fill="#258AFF"/>
<path d="M54.626 58.5671C54.6139 58.5748 54.6056 58.5801 54.6006 58.5832C54.6061 58.5796 54.6144 58.5745 54.626 58.5671Z" fill="#258AFF"/>
<path d="M23.8087 57.5668L22.8311 58.2061L28.4111 62.2369L28.7872 62.5151V61.9962L29.6971 61.4022L29.7573 61.3571L23.8087 57.0479V57.5668Z" fill="#258AFF"/>
<path d="M24.1339 15.9647L23.3613 14.6743L22.0709 15.4469L22.8435 16.7373L24.1339 15.9647Z" fill="#258AFF"/>
<path d="M21.5519 17.5102L20.7793 16.2197L19.4889 16.9923L20.2615 18.2828L21.5519 17.5102Z" fill="#258AFF"/>
<path d="M26.715 14.4201L25.9424 13.1296L24.6517 13.9024L25.4243 15.1928L26.715 14.4201Z" fill="#258AFF"/>
<path d="M54.3866 15.4467L53.0962 14.6741L52.3236 15.9645L53.614 16.7371L54.3866 15.4467Z" fill="#258AFF"/>
<path d="M56.9696 16.9921L55.6792 16.2195L54.9066 17.5099L56.197 18.2825L56.9696 16.9921Z" fill="#258AFF"/>
<path d="M51.8044 13.9L50.5137 13.1274L49.7412 14.4179L51.0319 15.1905L51.8044 13.9Z" fill="#258AFF"/>
<path d="M53.8988 32.1942L53.2596 31.7731V30.833C53.1239 30.9009 47.3764 33.7746 47.4539 33.7359L48.1007 34.157C48.1007 34.2327 48.1007 35.1728 48.1007 35.097L53.8988 32.1942Z" fill="#258AFF"/>
<path d="M23.808 31.7728L23.1387 32.209L28.7864 35.0893C28.7864 35.0136 28.7864 34.0886 28.7864 34.1643L29.4407 33.7356C29.3651 33.6971 23.4293 30.6697 23.808 30.8629V31.7728V31.7728Z" fill="#258AFF"/>
<path d="M62.1498 28.2155L54.7573 23.3799V30.9603L62.1498 35.7884V28.2155Z" fill="#258AFF"/>
<path d="M62.9033 26.9139L70.3109 22.1009L62.9033 17.2878L55.5259 22.0933L62.9033 26.9139Z" fill="#258AFF"/>
<path d="M63.6538 28.2152V35.7882L71.0613 30.96V23.4021L63.6538 28.2152Z" fill="#258AFF"/>
</g>
<g filter="url(#filter1_d)">
<path d="M114.63 21.8927C118.751 21.8927 122.095 22.8064 124.661 24.6337C127.227 26.4611 128.51 29.0272 128.51 32.332C128.51 34.3149 128.005 36.2006 126.994 37.9891C126.022 39.7387 124.739 41.4106 123.145 43.0047C121.589 44.5987 119.334 46.6983 116.379 49.3033C112.88 52.4137 110.489 54.591 109.206 55.8351H124.194C125.166 55.8351 125.983 55.6019 126.644 55.1353C127.344 54.6299 127.771 53.8328 127.927 52.7442H129.268C129.152 53.5995 129.093 54.7076 129.093 56.0684C129.093 58.5956 129.229 61.2395 129.502 64H111.131L103.257 63.9417C101.897 63.9417 100.886 63.9611 100.225 64V62.8336C105.551 58.6734 109.77 54.105 112.88 49.1283C116.03 44.1516 117.604 38.7861 117.604 33.0319C117.604 26.5389 115.524 23.2924 111.364 23.2924C110.625 23.2924 109.925 23.3896 109.264 23.584C108.603 23.7784 108.079 24.0505 107.69 24.4004C109.012 24.7892 110.003 25.4891 110.664 26.5C111.364 27.472 111.714 28.5606 111.714 29.7659C111.714 31.3211 111.17 32.5459 110.081 33.4401C109.031 34.3344 107.768 34.7815 106.29 34.7815C104.774 34.7815 103.568 34.3149 102.674 33.3818C101.78 32.4098 101.333 31.2434 101.333 29.8826C101.333 27.7053 102.538 25.8585 104.949 24.3421C107.554 22.7092 110.781 21.8927 114.63 21.8927ZM147.663 21.8927C151.784 21.8927 155.128 22.8064 157.694 24.6337C160.26 26.4611 161.543 29.0272 161.543 32.332C161.543 34.3149 161.038 36.2006 160.027 37.9891C159.055 39.7387 157.772 41.4106 156.178 43.0047C154.622 44.5987 152.367 46.6983 149.413 49.3033C145.913 52.4137 143.522 54.591 142.239 55.8351H157.227C158.199 55.8351 159.016 55.6019 159.677 55.1353C160.377 54.6299 160.804 53.8328 160.96 52.7442H162.301C162.185 53.5995 162.126 54.7076 162.126 56.0684C162.126 58.5956 162.262 61.2395 162.535 64H144.164L136.29 63.9417C134.93 63.9417 133.919 63.9611 133.258 64V62.8336C138.584 58.6734 142.803 54.105 145.913 49.1283C149.063 44.1516 150.637 38.7861 150.637 33.0319C150.637 26.5389 148.557 23.2924 144.397 23.2924C143.658 23.2924 142.958 23.3896 142.297 23.584C141.636 23.7784 141.112 24.0505 140.723 24.4004C142.045 24.7892 143.036 25.4891 143.697 26.5C144.397 27.472 144.747 28.5606 144.747 29.7659C144.747 31.3211 144.203 32.5459 143.114 33.4401C142.064 34.3344 140.801 34.7815 139.323 34.7815C137.807 34.7815 136.601 34.3149 135.707 33.3818C134.813 32.4098 134.366 31.2434 134.366 29.8826C134.366 27.7053 135.571 25.8585 137.982 24.3421C140.587 22.7092 143.814 21.8927 147.663 21.8927ZM188.278 39.5638C190.533 41.5078 192.341 43.1602 193.701 44.521C195.062 45.8818 196.209 47.3592 197.142 48.9533C198.075 50.5474 198.542 52.1998 198.542 53.9106C198.542 55.9712 197.842 57.8375 196.442 59.5093C195.082 61.1812 193.177 62.4837 190.727 63.4168C188.278 64.3499 185.537 64.8165 182.504 64.8165C179.743 64.8165 177.197 64.4277 174.864 63.6501C172.531 62.8725 170.665 61.7255 169.265 60.2092C167.904 58.654 167.224 56.8266 167.224 54.7271C167.224 52.3165 168.118 50.2558 169.907 48.5451C171.695 46.8344 174.164 45.3764 177.313 44.1711C174.708 41.9549 172.687 39.8942 171.248 37.9891C169.848 36.084 169.149 33.965 169.149 31.6322C169.149 28.4051 170.509 25.9751 173.231 24.3421C175.953 22.7092 179.277 21.8927 183.204 21.8927C185.809 21.8927 188.103 22.262 190.086 23.0008C192.107 23.7006 193.663 24.692 194.751 25.9751C195.879 27.2193 196.442 28.619 196.442 30.1742C196.442 31.9238 195.704 33.479 194.226 34.8398C192.749 36.1617 190.455 37.4642 187.344 38.7473L188.278 39.5638ZM182.854 22.9424C181.571 22.9424 180.599 23.2924 179.938 23.9922C179.277 24.692 178.946 25.6446 178.946 26.8499C178.946 28.6773 179.588 30.4658 180.871 32.2154C182.193 33.9261 184.079 35.8507 186.528 37.9891C187.15 37.056 187.597 35.8701 187.869 34.4316C188.142 32.9541 188.278 31.6322 188.278 30.4658C188.278 28.0552 187.792 26.2084 186.82 24.9253C185.848 23.6034 184.526 22.9424 182.854 22.9424ZM182.795 63.7667C184.662 63.7667 186.042 63.2807 186.936 62.3087C187.869 61.2978 188.336 59.9953 188.336 58.4012C188.336 56.8072 187.928 55.3103 187.111 53.9106C186.295 52.472 185.284 51.1695 184.079 50.0031C182.873 48.8367 181.24 47.3981 179.18 45.6874C179.257 45.7263 178.946 45.4736 178.246 44.9292C176.652 46.9899 175.855 49.867 175.855 53.5606C175.855 60.3647 178.169 63.7667 182.795 63.7667Z" fill="#258AFF"/>
</g>
<defs>
<filter id="filter0_d" x="0.0233917" y="0.0233917" width="77.0146" height="83.9534" filterUnits="userSpaceOnUse" color-interpolation-filters="sRGB">
<feFlood flood-opacity="0" result="BackgroundImageFix"/>
<feColorMatrix in="SourceAlpha" type="matrix" values="0 0 0 0 0 0 0 0 0 0 0 0 0 0 0 0 0 0 127 0"/>
<feOffset dy="2"/>
<feGaussianBlur stdDeviation="2.9883"/>
<feColorMatrix type="matrix" values="0 0 0 0 0.958333 0 0 0 0 0.785833 0 0 0 0 0.527083 0 0 0 1 0"/>
<feBlend mode="normal" in2="BackgroundImageFix" result="effect1_dropShadow"/>
<feBlend mode="normal" in="SourceGraphic" in2="effect1_dropShadow" result="shape"/>
</filter>
<filter id="filter1_d" x="94.4246" y="18.0926" width="109.917" height="54.5238" filterUnits="userSpaceOnUse" color-interpolation-filters="sRGB">
<feFlood flood-opacity="0" result="BackgroundImageFix"/>
<feColorMatrix in="SourceAlpha" type="matrix" values="0 0 0 0 0 0 0 0 0 0 0 0 0 0 0 0 0 0 127 0"/>
<feOffset dy="2"/>
<feGaussianBlur stdDeviation="2.9"/>
<feColorMatrix type="matrix" values="0 0 0 0 0.956863 0 0 0 0 0.784314 0 0 0 0 0.52549 0 0 0 0.5 0"/>
<feBlend mode="normal" in2="BackgroundImageFix" result="effect1_dropShadow"/>
<feBlend mode="normal" in="SourceGraphic" in2="effect1_dropShadow" result="shape"/>
</filter>
</defs>
</svg>
